<?xml version="1.0" encoding="UTF-8"?>
<svg id="Ebene_1" data-name="Ebene 1" xmlns="http://www.w3.org/2000/svg" viewBox="0 0 560 560">
  <defs>
    <style>
      .cls-1 {
        fill: #9a9a9a;
      }

      .cls-2 {
        fill: #3b82f6;
      }

      .cls-3 {
        fill: #fefefe;
      }

      .cls-4 {
        fill: #fdfdfd;
      }
    </style>
  </defs>
  <rect class="cls-4" width="560" height="560"/>
  <path class="cls-2" d="M252.4,44.15c36.08-1.13,75.41-1.01,111.33.87,72.61,3.8,138.74,48.68,168.86,114.64,52.89,115.86-11.73,243.52-132.38,275.8-37.05,9.91-78.23,4.83-116.48,7.02-20.07,1.15-18.1,12.26-18.73,28.27-.35,8.76-.7,17.71-1.02,26.48-.12,3.41.65,9.92-.21,12.79-.8,2.67-7.23,9.57-9.61,11.39-11.56,8.88-28.91,6.41-37.65-5.18-3.96-5.26-3.24-20.64-3.49-27.51-2.61-70.81-.51-143.9-.5-215,.02-64.31-1.8-130.26.5-194.46.33-9.36-1.55-16.71,4.99-24.51,9.27-11.03,21.14-10.2,34.38-10.62Z"/>
  <path class="cls-1" d="M165.38,115.13c19.88-2.69,30.74,8.6,31.64,27.6.51,10.79-.19,22.16-.04,33.04,1,74.95,1.36,150.52,0,225.46-.2,10.94,1.44,36.13-3.46,45.04-10.48,19.02-42.19,15.7-48.28-5.75-.44-82.19-.46-164.59.29-246.74.17-18.95-1.24-39.9.49-58.51.82-8.79,10.71-18.96,19.37-20.13Z"/>
  <path class="cls-1" d="M99.87,176.62c8.17-1.18,17.78,2.35,23.39,8.37s4.81,12.83,5.25,20.75c.88,16.13.86,32.81,1.02,48.98.29,29.82-.07,59.75-.54,89.5-.16,9.88,1.8,30.86-2.77,38.73-9.7,16.73-33.91,17.16-44.82,1.4-4.59-6.63-3.61-18.77-3.89-26.61-1.94-53.69.81-107.7.04-161.47,3.11-9.64,12.14-18.19,22.34-19.66Z"/>
  <path class="cls-1" d="M32.39,236.64c10.36-1.25,19.63,2.63,25.81,10.91,3.65,4.9,4.44,7,4.8,13.2.7,12.04,1.43,46.95-2.49,57-3.08,7.91-14.2,16.14-22.79,16.26-10.58.15-24-8.8-25.9-19.6-2.08-11.83-1.32-33.19-.85-45.69.2-5.38.36-13.52,2.8-18.2,3.35-6.41,11.29-13.01,18.61-13.89Z"/>
  <path class="cls-3" d="M308.9,99.65c48.35-.64,87.44-1.53,127.76,28.44,107.28,79.75,57.68,247.75-74.41,257.4-22.42,1.64-49.91,1.47-72.49.5-7.34-.32-13.94-.08-19.24-5.76-5.38-5.76-5.24-11.97-5.53-19.47-.54-13.82.19-28.15.04-42.04-.51-48.56-.99-97.37-.54-146,.15-16.67.13-33.83,1.04-50.46.28-5.05-.74-6.9,1.72-11.78,4.87-9.66,11.05-10.07,20.99-10.51,6.8-.3,13.9-.24,20.67-.33Z"/>
  <path class="cls-1" d="M301.39,195.64c14.62-1.78,28.67,8.03,29.63,23.09,2.11,32.97,1.16,71.36-.02,104.53-.46,12.89,1.44,19.79-9.5,29-10.69,9-27.28,6.55-36.26-3.75-5.46-6.26-4.79-12.04-5.25-19.75-1.78-29.66-.52-60.27.03-89.98.13-6.85-.97-17.22.01-23.49,1.39-8.89,12.55-18.57,21.36-19.64Z"/>
  <path class="cls-1" d="M367.38,218.13c16.72-2.12,29.09,7.94,30.12,24.63.84,13.63.75,32.33.03,46.02-.31,5.82-.85,11.25-4.53,15.97-10.13,12.97-30.35,13.7-41,1.02-4.41-5.25-5.12-10.35-5.48-17.02-.74-13.53-.76-31.49-.03-45.02.69-12.77,7.22-23.86,20.9-25.6Z"/>
</svg>